<svg width="144" height="36" viewBox="0 0 144 36" fill="none" xmlns="http://www.w3.org/2000/svg">
<g clip-path="url(#clip0_2343_2065)">
<path d="M52.0255 21.9026H42.7872L40.7971 26.3795H38.9746L46.5527 9.63098H48.281L55.8591 26.3795H54.0104L52.0255 21.9026ZM51.3814 20.4633L47.4011 11.4672L43.4209 20.4633H51.3814Z" fill="#113154"/>
<path d="M58.1055 19.2197V9.62573H59.8599V19.1456C59.8599 23.1198 61.7086 24.9349 64.9294 24.9349C68.1712 24.9349 70.0199 23.1145 70.0199 19.1456V9.62573H71.7272V19.2197C71.7272 24.03 69.1715 26.5171 64.9294 26.5171C60.6874 26.5171 58.1055 24.03 58.1055 19.2197Z" fill="#113154"/>
<path d="M77.001 9.62573H83.7516C89.0568 9.62573 92.6338 13.0707 92.6338 17.9973C92.6338 22.924 89.0568 26.3689 83.7516 26.3689H77.001V9.62573ZM83.6521 24.8449C88.0565 24.8449 90.9003 22.0191 90.9003 18.0026C90.9003 13.9809 88.0565 11.1603 83.6521 11.1603H78.7502V24.8449H83.6521Z" fill="#113154"/>
<path d="M94.1689 25.0354L95.9705 20.9183C97.5312 21.8497 99.6156 22.4477 101.438 22.4477C103.025 22.4477 103.591 22.1143 103.591 21.5375C103.591 19.4314 94.4256 21.13 94.4256 14.8857C94.4256 11.7741 97.0075 9.23938 102.145 9.23938C104.371 9.23938 106.67 9.71564 108.398 10.6999L106.717 14.7905C105.083 13.9544 103.543 13.5469 102.098 13.5469C100.464 13.5469 99.9455 14.0232 99.9455 14.6C99.9455 16.6108 109.11 14.9333 109.11 21.1088C109.11 24.1728 106.529 26.7552 101.391 26.7552C98.6205 26.7552 95.8239 26.062 94.1689 25.0354Z" fill="#113154"/>
<path d="M110.624 18.8387V9.62573H116.212V18.6694C116.212 21.2306 117.181 22.1884 118.747 22.1884C120.307 22.1884 121.282 21.2306 121.282 18.6694V9.62573H126.775V18.8387C126.775 23.8659 123.79 26.7605 118.7 26.7605C113.609 26.7605 110.624 23.8606 110.624 18.8387Z" fill="#113154"/>
<path d="M128.283 25.0354L130.085 20.9183C131.645 21.8497 133.73 22.4477 135.552 22.4477C137.139 22.4477 137.705 22.1143 137.705 21.5375C137.705 19.4314 128.54 21.13 128.54 14.8857C128.54 11.7741 131.122 9.23938 136.259 9.23938C138.485 9.23938 140.784 9.71564 142.512 10.6999L140.831 14.7905C139.197 13.9544 137.658 13.5469 136.212 13.5469C134.578 13.5469 134.06 14.0232 134.06 14.6C134.06 16.6108 143.225 14.9333 143.225 21.1088C143.225 24.1728 140.643 26.7552 135.505 26.7552C132.735 26.7552 129.943 26.062 128.283 25.0354Z" fill="#113154"/>
<path d="M7.87143 10.4195C7.01254 11.6313 6.3998 12.9807 6.04891 14.4359C5.69803 15.8912 5.62994 17.3729 5.8499 18.8493C6.0751 20.3733 6.59357 21.8232 7.39485 23.1515C8.19613 24.4797 9.22785 25.6069 10.469 26.5118C11.6683 27.3796 13.0038 27.9988 14.444 28.3533C15.8842 28.7079 17.3506 28.7766 18.8118 28.5544C20.3201 28.3268 21.7551 27.803 23.0696 26.9933C24.3841 26.1837 25.4996 25.1412 26.3951 23.887C27.254 22.6752 27.8668 21.3258 28.2177 19.8706C28.4062 19.0927 28.5109 18.3095 28.5371 17.521C28.1129 19.2144 27.2278 20.712 25.9814 21.8656C25.6567 22.1672 25.3687 22.5059 25.1173 22.8657C24.3841 23.9082 23.4414 24.829 22.305 25.5434C17.7329 28.4115 11.616 26.9457 8.80364 22.3101C5.98607 17.6533 7.44723 11.5519 12.0559 8.7155C13.2185 8.00111 14.4754 7.5566 15.7481 7.37138C16.2142 7.30259 16.675 7.18617 17.1202 7.02213C18.6861 6.45591 20.3882 6.35007 22.0431 6.74166C21.3413 6.40299 20.5976 6.1384 19.833 5.95319C18.3928 5.59864 16.9264 5.52984 15.4653 5.7521C13.957 5.97965 12.522 6.50353 11.2075 7.31318C9.89296 8.12282 8.76174 9.1653 7.87143 10.4195Z" fill="#29C3F1"/>
<path d="M12.2754 13.4516C11.7831 15.4995 12.0921 17.6163 13.1448 19.4313C13.1448 19.4366 13.15 19.4419 13.15 19.4419C13.171 19.479 13.1919 19.516 13.2129 19.553C13.2338 19.5901 13.26 19.6271 13.2809 19.6642C13.2809 19.6695 13.2862 19.6748 13.2862 19.6748C14.4017 21.4528 16.1195 22.7017 18.1515 23.1991C20.2254 23.7071 22.3726 23.3684 24.1951 22.2466C25.0645 21.7121 25.8081 21.0295 26.4104 20.2304C27.0651 19.3572 27.5416 18.3518 27.8035 17.2564C28.301 15.1926 27.9816 13.06 26.9132 11.2397C26.8975 11.2079 26.8765 11.1814 26.8608 11.1497C26.8451 11.1179 26.8241 11.0915 26.8084 11.065C25.6929 9.27111 23.9647 8.00637 21.9222 7.50894C20.8381 7.24436 19.7331 7.20731 18.6699 7.39782C17.6958 7.56715 16.7532 7.927 15.8838 8.46147C14.0613 9.58332 12.7782 11.3561 12.2754 13.4516ZM25.4782 12.007C25.4939 12.0281 25.5044 12.0546 25.5201 12.0758C27.2902 15.0921 26.3266 19.0133 23.3572 20.8442C22.2312 21.5375 20.969 21.8338 19.7383 21.7756C17.7168 21.675 15.779 20.6061 14.6321 18.7434C14.6216 18.7275 14.6164 18.7169 14.6059 18.7011C14.5955 18.6852 14.5902 18.6693 14.5797 18.6587C13.4642 16.7801 13.4171 14.547 14.255 12.6843C14.763 11.5519 15.601 10.557 16.7322 9.86379C19.7069 8.03283 23.5928 8.96418 25.4363 11.9382C25.4468 11.9593 25.4625 11.9805 25.4782 12.007Z" fill="#113154"/>
<path d="M14.8623 13.1923C14.6162 13.7903 14.4748 14.4306 14.4434 15.0815C14.7471 14.4624 15.2185 13.9173 15.8469 13.531C17.6013 12.4515 19.9004 13.0124 20.9688 14.7852C22.0372 16.5579 21.4821 18.8757 19.7276 19.9605C19.0992 20.3468 18.4026 20.5215 17.7218 20.5109C18.3084 20.7808 18.9368 20.9448 19.5757 21.003C20.6808 21.0983 21.7439 20.5638 22.3305 19.6113C23.3622 17.9338 23.446 15.7377 22.3619 13.9332C21.2778 12.1287 19.3086 11.2026 17.3552 11.3614C16.2449 11.446 15.2865 12.1551 14.8623 13.1923Z" fill="#29C3F1"/>
<path d="M33.3497 14.7111C33.025 12.515 32.2814 10.4354 31.1292 8.52502C29.977 6.61469 28.4897 4.99011 26.7038 3.69362C24.9808 2.44476 23.0588 1.55045 20.9901 1.04244C18.9215 0.534428 16.8109 0.439176 14.7108 0.751392C12.5374 1.07948 10.4792 1.83092 8.5886 2.99511C6.698 4.1593 5.0902 5.66217 3.80711 7.46666C2.57115 9.20766 1.68607 11.1497 1.18331 13.24C0.691018 15.3303 0.591513 17.4628 0.90574 19.5848C1.23044 21.7809 1.97411 23.8606 3.12628 25.7709C3.61857 26.5912 4.17894 27.3532 4.79169 28.0623L1.57609 31.6924C0.759101 32.6132 0.837658 34.0314 1.74892 34.8569C2.17312 35.2379 2.70207 35.4284 3.22579 35.4284C3.83329 35.4284 4.4408 35.1744 4.88072 34.6823L8.13297 31.0098C9.70411 32.047 11.4219 32.8037 13.2601 33.2535C15.3288 33.7615 17.4393 33.8568 19.5394 33.5446C21.7128 33.2165 23.771 32.465 25.6616 31.3009C27.5522 30.1367 29.16 28.6338 30.4431 26.8293C31.6791 25.0883 32.5642 23.1462 33.0669 21.056C33.5645 18.9657 33.6587 16.8331 33.3497 14.7111ZM23.8339 28.2687C18.9372 31.285 12.8411 30.6076 8.71953 27.0198C8.71429 27.0145 8.70906 27.0092 8.70382 27.0039C8.67764 26.9828 8.65145 26.9616 8.62526 26.9404C7.66687 26.0884 6.81846 25.083 6.12192 23.9241C2.41927 17.7803 4.34129 9.76859 10.4216 6.0273C16.5019 2.28601 24.4309 4.22809 28.1336 10.3719C31.8362 16.5103 29.9142 24.5274 23.8339 28.2687Z" fill="#113154"/>
</g>
<defs>
<clipPath id="clip0_2343_2065">
<rect width="144" height="36" fill="white"/>
</clipPath>
</defs>
</svg>
